<svg width="101" height="89" viewBox="0 0 101 89" fill="none" xmlns="http://www.w3.org/2000/svg">
<path d="M10.2 48.025L10.125 46.3C8.925 46.15 7.425 45.85 5.625 45.4C4.875 44.7 4.5 43.675 4.5 42.325C4.5 41.875 4.575 41.65 4.725 41.65C4.925 41.65 5.25 41.7 5.7 41.8C6.75 42.15 8.2 42.425 10.05 42.625C9.85 38.825 9.425 35 8.775 31.15C8.175 27.25 7.625 24.3 7.125 22.3L6.375 19.3L12.9 16.225L14.85 17.425C15.6 21.875 15.975 26.275 15.975 30.625C15.975 34.975 15.85 39.025 15.6 42.775C22.35 42.475 27.95 41.325 32.4 39.325C32.35 38.275 32.325 35.9 32.325 32.2C32.325 28.45 32.8 23.525 33.75 17.425L35.7 16.225L42.075 19.3C39.775 25.2 38.625 34.275 38.625 46.525C38.625 55.625 39 63.225 39.75 69.325C39.75 69.475 39.55 69.55 39.15 69.55C37.85 69.55 36.875 69.175 36.225 68.425C34.425 59.275 33.275 51.5 32.775 45.1C27.475 46.2 22.6 46.75 18.15 46.75H15.3C14.75 52.55 13.775 59.65 12.375 68.05C12.025 68.45 11.45 68.775 10.65 69.025C9.9 69.325 9.25 69.475 8.7 69.475C8.2 69.475 7.95 69.35 7.95 69.1L8.175 68.275C9.525 63.325 10.2 56.575 10.2 48.025ZM58.9746 33.55C59.0746 35.05 59.1246 36.6 59.1246 38.2C59.1246 46.9 57.5996 56.475 54.5496 66.925C53.8496 67.625 52.8996 67.975 51.6996 67.975C51.4496 67.975 51.2746 67.95 51.1746 67.9C51.1246 67.85 51.1246 67.775 51.1746 67.675C52.3746 60.525 52.9746 53.95 52.9746 47.95C52.9746 41.95 52.3496 36.55 51.0996 31.75L52.8996 30.625L58.9746 33.55ZM55.8996 26.125C54.6496 26.125 53.6746 25.7 52.9746 24.85C52.3246 24 51.9996 22.925 51.9996 21.625C51.9996 20.325 52.5746 19.2 53.7246 18.25C54.8746 17.25 56.5496 16.6 58.7496 16.3C60.2496 17.55 60.9996 19.05 60.9996 20.8C60.9996 22.5 60.4746 23.825 59.4246 24.775C58.3746 25.675 57.1996 26.125 55.8996 26.125ZM68.983 30.625L74.983 33.625C75.483 37.075 75.733 40.025 75.733 42.475C75.733 44.875 75.708 46.575 75.658 47.575C77.708 42.475 80.208 38.3 83.158 35.05C86.158 31.8 88.858 30.175 91.258 30.175C95.808 30.175 98.083 33 98.083 38.65C98.083 43.85 96.283 49.25 92.683 54.85C90.883 57.65 88.333 60.275 85.033 62.725C81.783 65.175 78.033 67.125 73.783 68.575C72.933 74.575 71.808 80.5 70.408 86.35C69.558 87.2 68.508 87.625 67.258 87.625C66.858 87.625 66.658 87.5 66.658 87.25C68.908 76.8 70.033 66.675 70.033 56.875C70.033 47.075 69.058 38.75 67.108 31.9L68.983 30.625ZM74.908 60.1H74.833L74.383 64.375C79.833 62.475 83.958 59.6 86.758 55.75C89.608 51.9 91.033 48.175 91.033 44.575C91.033 40.975 89.783 39.175 87.283 39.175C85.283 39.175 83.083 41.025 80.683 44.725C78.283 48.425 76.358 53.55 74.908 60.1Z" fill="#ED254E"/>
<path d="M56.5 9L58.9787 17.4574H67L60.5106 22.2482L62.9894 30L56.5 25.2091L50.0106 30L52.4894 22.2482L46 17.4574H54.0213L56.5 9Z" fill="#ED254E"/>
</svg>
